<svg xmlns="http://www.w3.org/2000/svg" viewBox="0 0 32 32" width="32" height="32">
  <!-- Background circle -->
  <circle cx="16" cy="16" r="15" fill="#2563eb" stroke="#1d4ed8" stroke-width="2"/>
  
  <!-- MCP Icon - representing Model Context Protocol -->
  <!-- Central hub node -->
  <circle cx="16" cy="16" r="3" fill="white"/>
  
  <!-- Connected nodes representing protocol connections -->
  <circle cx="8" cy="8" r="2" fill="white" opacity="0.9"/>
  <circle cx="24" cy="8" r="2" fill="white" opacity="0.9"/>
  <circle cx="8" cy="24" r="2" fill="white" opacity="0.9"/>
  <circle cx="24" cy="24" r="2" fill="white" opacity="0.9"/>
  
  <!-- Connection lines -->
  <line x1="16" y1="16" x2="8" y2="8" stroke="white" stroke-width="1.5" opacity="0.8"/>
  <line x1="16" y1="16" x2="24" y2="8" stroke="white" stroke-width="1.5" opacity="0.8"/>
  <line x1="16" y1="16" x2="8" y2="24" stroke="white" stroke-width="1.5" opacity="0.8"/>
  <line x1="16" y1="16" x2="24" y2="24" stroke="white" stroke-width="1.5" opacity="0.8"/>
  
  <!-- Additional smaller nodes for protocol complexity -->
  <circle cx="16" cy="6" r="1.5" fill="white" opacity="0.7"/>
  <circle cx="16" cy="26" r="1.5" fill="white" opacity="0.7"/>
  <circle cx="6" cy="16" r="1.5" fill="white" opacity="0.7"/>
  <circle cx="26" cy="16" r="1.5" fill="white" opacity="0.7"/>
  
  <!-- Connect to additional nodes -->
  <line x1="16" y1="16" x2="16" y2="6" stroke="white" stroke-width="1" opacity="0.6"/>
  <line x1="16" y1="16" x2="16" y2="26" stroke="white" stroke-width="1" opacity="0.6"/>
  <line x1="16" y1="16" x2="6" y2="16" stroke="white" stroke-width="1" opacity="0.6"/>
  <line x1="16" y1="16" x2="26" y2="16" stroke="white" stroke-width="1" opacity="0.6"/>
</svg>